<?xml version="1.0" encoding="UTF-8"?>
<!DOCTYPE svg PUBLIC "-//W3C//DTD SVG 1.1//EN" "http://www.w3.org/Graphics/SVG/1.1/DTD/svg11.dtd">
<!-- Creator: CorelDRAW -->
<svg xmlns="http://www.w3.org/2000/svg" xml:space="preserve" width="25mm" height="25mm" style="shape-rendering:geometricPrecision; text-rendering:geometricPrecision; image-rendering:optimizeQuality; fill-rule:evenodd; clip-rule:evenodd"
viewBox="0 0 1.35865 1.35865"
 xmlns:xlink="http://www.w3.org/1999/xlink">
 <defs>
  <style type="text/css">
   <![CDATA[
    .str0 {stroke:black;stroke-width:0.00414116}
    .fil2 {fill:black}
    .fil4 {fill:white}
    .fil0 {fill:gray}
    .fil1 {fill:silver}
    .fil5 {fill:red}
    .fil3 {fill:url(#id0)}
   ]]>
  </style>
  <radialGradient id="id0" gradientUnits="userSpaceOnUse" cx="0.64363" cy="0.652635" r="0.197113" fx="0.64363" fy="0.652635">
   <stop offset="0" style="stop-color:white"/>
   <stop offset="0.129412" style="stop-color:#E5E5E1"/>
   <stop offset="0.290196" style="stop-color:#CCC8C8"/>
   <stop offset="0.439216" style="stop-color:#B2B4B4"/>
   <stop offset="0.74902" style="stop-color:#464D43"/>
   <stop offset="1" style="stop-color:black"/>
  </radialGradient>
 </defs>
 <g id="Layer_x0020_1">
  <metadata id="CorelCorpID_0Corel-Layer"/>
  <rect class="fil0" width="1.35865" height="1.35865"/>
  <rect class="fil1" x="0.0829396" y="0.0829396" width="1.27571" height="1.27571"/>
  <polygon class="fil2 str0" points="0.167782,0.756159 0.159625,0.721035 0.167782,0.685428 0.685428,0.685428 0.685428,0.167782 0.720579,0.160935 0.756159,0.167782 0.756159,0.685428 1.27381,0.685428 1.27897,0.720953 1.27381,0.756159 0.756159,0.756159 0.756159,1.27381 0.722513,1.27992 0.685428,1.27381 0.685428,0.756159 "/>
  <circle class="fil2 str0" cx="0.442506" cy="0.438783" r="0.0560864"/>
  <polygon class="fil2 str0" points="0.380715,1.10734 0.350374,1.0901 0.334244,1.06087 0.674325,0.720796 0.334244,0.380721 0.353732,0.351385 0.380715,0.334249 0.72079,0.674325 1.06087,0.334244 1.09026,0.351722 1.10734,0.380715 0.767262,0.720796 1.10734,1.06088 1.09138,1.09113 1.06087,1.10735 0.72079,0.767267 "/>
  <circle class="fil2 str0" cx="0.723711" cy="0.327585" r="0.0560864"/>
  <circle class="fil3" cx="0.720796" cy="0.714366" r="0.385823"/>
  <circle class="fil2 str0" cx="0.98818" cy="0.453809" r="0.0560864"/>
  <circle class="fil2 str0" cx="0.451522" cy="0.988074" r="0.0560864"/>
  <circle class="fil2 str0" cx="0.98818" cy="0.988074" r="0.0560864"/>
  <circle class="fil4" cx="0.652863" cy="0.665347" r="0.0520036"/>
  <g id="_176684160">
   <rect id="_176684256" class="fil5" transform="matrix(0.591492 -0.591492 0.591492 0.591492 0.202822 0.289375)" width="0.142886" height="1.60747" rx="0.0357216" ry="0.0357216"/>
   <rect id="_176684184" class="fil5" transform="matrix(-0.591492 -0.591492 0.591492 -0.591492 0.287338 1.24018)" width="0.142886" height="1.60747" rx="0.0357216" ry="0.0357216"/>
  </g>
 </g>
</svg>
